<svg width="81" height="81" viewBox="0 0 81 81" fill="none" xmlns="http://www.w3.org/2000/svg">
<path d="M79.3635 12.2854C79.6014 12.0487 79.7343 11.7273 79.7343 11.3906V2.53125C79.7343 1.83136 79.1673 1.26562 78.4687 1.26562H69.6093C69.2739 1.26562 68.9512 1.39852 68.7145 1.63645L40.5 29.851L12.2854 1.63645C12.0487 1.39852 11.726 1.26562 11.3906 1.26562H2.5312C1.83258 1.26562 1.26558 1.83136 1.26558 2.53125V11.3906C1.26558 11.7273 1.39847 12.0487 1.6364 12.2854L29.851 40.5L22.7812 47.5698L19.8791 44.6677C19.3843 44.1728 18.5844 44.1728 18.0895 44.6677L13.027 49.7302C12.5322 50.2251 12.5322 51.0249 13.027 51.5198L17.1947 55.6875L7.5937 65.2885L7.22287 64.9177C6.72801 64.4228 5.92814 64.4228 5.43328 64.9177L1.6364 68.7146C1.14154 69.2094 1.14154 70.0093 1.6364 70.5042L10.4958 79.3635C10.7426 79.6103 11.0666 79.7344 11.3906 79.7344C11.7146 79.7344 12.0386 79.6103 12.2854 79.3635L16.0822 75.5667C16.5771 75.0718 16.5771 74.2719 16.0822 73.7771L15.7114 73.4062L25.3125 63.8052L29.4802 67.9729C29.7269 68.2197 30.0509 68.3438 30.375 68.3438C30.6989 68.3438 31.023 68.2197 31.2697 67.9729L36.3322 62.9104C36.8271 62.4156 36.8271 61.6157 36.3322 61.1208L33.4302 58.2188L40.5 51.149L47.5697 58.2188L44.6677 61.1208C44.1728 61.6157 44.1728 62.4156 44.6677 62.9104L49.7302 67.9729C49.977 68.2197 50.301 68.3438 50.625 68.3438C50.949 68.3438 51.273 68.2197 51.5197 67.9729L55.6875 63.8052L65.2885 73.4062L64.9177 73.7771C64.4228 74.2719 64.4228 75.0718 64.9177 75.5667L68.7145 79.3635C68.9613 79.6103 69.2853 79.7344 69.6093 79.7344C69.9333 79.7344 70.2573 79.6103 70.5041 79.3635L79.3635 70.5042C79.8584 70.0093 79.8584 69.2094 79.3635 68.7146L75.5666 64.9177C75.0718 64.4228 74.2719 64.4228 73.777 64.9177L73.4062 65.2885L63.8052 55.6875L67.9729 51.5198C68.4677 51.0249 68.4677 50.2251 67.9729 49.7302L62.9104 44.6677C62.4155 44.1728 61.6156 44.1728 61.1208 44.6677L58.2187 47.5698L51.1489 40.5L79.3635 12.2854ZM38.7104 31.6406L36.0703 34.2807L5.58642 3.79688H10.8666L38.7104 31.6406ZM3.79683 10.8667V5.58647L34.2807 36.0703L31.6406 38.7104L3.79683 10.8667ZM70.1333 3.79688H75.4135L27.2109 51.9995L24.5708 49.3594L70.1333 3.79688ZM15.1875 61.274L19.726 65.8125L17.7187 67.8198L13.1802 63.2812L15.1875 61.274ZM11.3906 76.6792L4.32079 69.6094L6.32807 67.6021L13.3979 74.6719L11.3906 76.6792ZM9.38329 67.0781L11.3906 65.0708L15.9291 69.6094L13.9218 71.6167L9.38329 67.0781ZM21.5156 64.0229L16.977 59.4844L18.9843 57.4771L23.5229 62.0156L21.5156 64.0229ZM30.375 65.2885L15.7114 50.625L18.9843 47.3521L33.6479 62.0156L30.375 65.2885ZM29.0005 53.7891L77.2031 5.58647V10.8667L31.6406 56.4292L29.0005 53.7891ZM42.2895 49.3594L44.9296 46.7193L51.9994 53.7891L49.3593 56.4292L42.2895 49.3594ZM61.2739 65.8125L65.8125 61.274L67.8197 63.2812L63.2812 67.8198L61.2739 65.8125ZM76.6791 69.6094L69.6093 76.6792L67.6021 74.6719L74.6718 67.6021L76.6791 69.6094ZM67.0781 71.6167L65.0708 69.6094L69.6093 65.0708L71.6166 67.0781L67.0781 71.6167ZM64.0229 59.4844L59.4843 64.0229L57.477 62.0156L62.0156 57.4771L64.0229 59.4844ZM62.0156 47.3521L65.2885 50.625L50.625 65.2885L47.352 62.0156L62.0156 47.3521ZM56.4291 49.3594L53.789 51.9995L46.7192 44.9297L49.3593 42.2896L56.4291 49.3594Z" fill="#858585"/>
</svg>
