<svg width="66" height="66" viewBox="0 0 66 66" fill="none" xmlns="http://www.w3.org/2000/svg">
<path d="M45.375 0H20.625C9.23588 0 0 9.23588 0 20.625V45.375C0 56.7641 9.23588 66 20.625 66H45.375C56.7641 66 66 56.7641 66 45.375V20.625C66 9.23588 56.7641 0 45.375 0ZM59.8125 45.375C59.8125 53.3363 53.3363 59.8125 45.375 59.8125H20.625C12.6638 59.8125 6.1875 53.3363 6.1875 45.375V20.625C6.1875 12.6638 12.6638 6.1875 20.625 6.1875H45.375C53.3363 6.1875 59.8125 12.6638 59.8125 20.625V45.375Z" fill="#C4C4C4"/>
<path d="M33 16.5C23.8879 16.5 16.5 23.8879 16.5 33C16.5 42.1121 23.8879 49.5 33 49.5C42.1121 49.5 49.5 42.1121 49.5 33C49.5 23.8879 42.1121 16.5 33 16.5ZM33 43.3125C27.3158 43.3125 22.6875 38.6842 22.6875 33C22.6875 27.3116 27.3158 22.6875 33 22.6875C38.6842 22.6875 43.3125 27.3116 43.3125 33C43.3125 38.6842 38.6842 43.3125 33 43.3125Z" fill="#C4C4C4"/>
<path d="M50.7376 17.4612C51.9518 17.4612 52.9362 16.4769 52.9362 15.2626C52.9362 14.0483 51.9518 13.064 50.7376 13.064C49.5233 13.064 48.5389 14.0483 48.5389 15.2626C48.5389 16.4769 49.5233 17.4612 50.7376 17.4612Z" fill="#C4C4C4"/>
</svg>
