<svg width="50" height="50" viewBox="0 0 50 50" fill="none" xmlns="http://www.w3.org/2000/svg">
<rect width="50" height="50" rx="15" fill="#FF0000"/>
<g clip-path="url(#clip0)">
<path d="M39.1646 4.4776H33.5597C33.1815 4.4776 32.8749 4.78421 32.8749 5.16237V8.58623H28.3041V5.16237C28.3041 4.78421 27.9975 4.4776 27.6193 4.4776H21.631C21.2528 4.4776 20.9462 4.78421 20.9462 5.16237V8.58623H16.3788V5.16237C16.3788 4.78421 16.0722 4.4776 15.694 4.4776H10.0892C9.71103 4.4776 9.40442 4.78421 9.40442 5.16237V12.5134C9.40819 14.3668 10.9098 15.8684 12.7632 15.8722H12.7769H36.4905C38.344 15.8684 39.8456 14.3668 39.8493 12.5134V5.16237C39.8493 4.78421 39.5427 4.4776 39.1646 4.4776Z" fill="white"/>
<path d="M35.9325 16.8959H13.335L12.3661 38.8805V39.0928C12.3595 40.1377 12.7125 41.1533 13.3658 41.9688C13.9656 42.7402 14.8663 43.2186 15.8413 43.2836H33.4296C34.4046 43.2186 35.3053 42.7402 35.9051 41.9688C36.5584 41.1533 36.9114 40.1377 36.9048 39.0928C36.9048 39.0517 36.9048 38.9798 36.9048 38.8805L35.9325 16.8959ZM29.8277 41.9483H19.4329V32.3067C19.4329 29.4334 21.7621 27.1042 24.6354 27.1042C27.5087 27.1042 29.838 29.4334 29.838 32.3067L29.8277 41.9483Z" fill="white"/>
</g>
<defs>
<clipPath id="clip0">
<rect width="38.806" height="38.806" fill="white" transform="translate(5.22388 4.4776)"/>
</clipPath>
</defs>
</svg>
