<svg width="40" height="40" viewBox="0 0 40 40" fill="none" xmlns="http://www.w3.org/2000/svg">
<g clip-path="url(#clip0)">
<path d="M34.1646 0.4776H28.5597C28.1815 0.4776 27.8749 0.784206 27.8749 1.16237V4.58623H23.3041V1.16237C23.3041 0.784206 22.9975 0.4776 22.6193 0.4776H16.631C16.2528 0.4776 15.9462 0.784206 15.9462 1.16237V4.58623H11.3788V1.16237C11.3788 0.784206 11.0722 0.4776 10.694 0.4776H5.08919C4.71103 0.4776 4.40442 0.784206 4.40442 1.16237V8.51339C4.40819 10.3668 5.9098 11.8684 7.76322 11.8722H7.77692H31.4905C33.344 11.8684 34.8456 10.3668 34.8493 8.51339V1.16237C34.8493 0.784206 34.5427 0.4776 34.1646 0.4776Z" fill="white"/>
<path d="M30.9325 12.8959H8.33501L7.36606 34.8805V35.0928C7.35947 36.1377 7.71247 37.1533 8.36582 37.9688C8.9656 38.7402 9.86633 39.2186 10.8413 39.2836H28.4296C29.4046 39.2186 30.3053 38.7402 30.9051 37.9688C31.5584 37.1533 31.9114 36.1377 31.9048 35.0928C31.9048 35.0517 31.9048 34.9798 31.9048 34.8805L30.9325 12.8959ZM24.8277 37.9483H14.4329V28.3067C14.4329 25.4334 16.7621 23.1042 19.6354 23.1042C22.5087 23.1042 24.838 25.4334 24.838 28.3067L24.8277 37.9483Z" fill="white"/>
</g>
<defs>
<clipPath id="clip0">
<rect width="38.806" height="38.806" fill="white" transform="translate(0.223877 0.4776)"/>
</clipPath>
</defs>
</svg>
