<svg width="34" height="34" viewBox="0 0 34 34" fill="none" xmlns="http://www.w3.org/2000/svg">
<g clip-path="url(#clip0)">
<path d="M23.5267 20.1756C27.608 14.4124 26.243 6.43206 20.4798 2.3517C14.7166 -1.72866 6.73626 -0.364639 2.6559 5.39954C-1.42446 11.1627 -0.0604397 19.1421 5.70374 23.2225C9.81724 26.1348 15.2558 26.359 19.5945 23.7967L29.0217 33.1674C30.0396 34.2389 31.7332 34.2818 32.8047 33.2639C33.8762 32.247 33.9191 30.5535 32.9022 29.4819C32.87 29.4478 32.8388 29.4166 32.8047 29.3844L23.5267 20.1756ZM13.0835 21.0492C8.52927 21.0502 4.83696 17.3608 4.83404 12.8066C4.83306 8.25237 8.52245 4.56006 13.0776 4.55812C17.626 4.55616 21.3163 8.2397 21.3251 12.7881C21.3329 17.3432 17.6455 21.0414 13.0893 21.0492C13.0874 21.0492 13.0864 21.0492 13.0835 21.0492Z" fill="white"/>
</g>
<defs>
<clipPath id="clip0">
<rect width="34" height="34" fill="white"/>
</clipPath>
</defs>
</svg>
