<svg width="68" height="68" viewBox="0 0 68 68" fill="none" xmlns="http://www.w3.org/2000/svg">
<g clip-path="url(#clip0)">
<path d="M37.0462 0H30.9983C27.6465 0 24.4538 1.33504 22.0089 3.75912C19.5451 6.20179 18.1883 9.41619 18.1883 12.8067L18.1438 26.1364C18.1419 26.6867 18.5865 27.1341 19.1367 27.1359H19.14C19.6887 27.1359 20.1343 26.692 20.1362 26.143L20.1618 18.4788H38.3714C39.6643 18.4978 39.6636 16.4673 38.3714 16.4864H34.9713V10.0342C34.9713 9.48393 34.5254 9.03803 33.9751 9.03803C33.4248 9.03803 32.9789 9.48393 32.9789 10.0342V16.4864H20.1685L20.1807 12.81C20.1807 6.94628 25.1346 1.99239 30.9982 1.99239H32.9788V5.27732C32.9788 5.82762 33.4247 6.27352 33.975 6.27352C34.5253 6.27352 34.9712 5.82762 34.9712 5.27732V1.99239H37.046C43.0109 1.99239 47.8635 6.8452 47.8635 12.81V16.4864H43.1281C41.8352 16.4674 41.8359 18.4979 43.1281 18.4788H47.8635V36.0036C47.8635 41.7307 43.3749 46.425 37.7407 46.7373V43.2349C37.7407 41.2209 36.102 39.5822 34.088 39.5822C32.0739 39.5822 30.4353 41.2209 30.4353 43.2349V46.7378C24.7283 46.4293 20.1806 41.7332 20.1806 36.0036V31.0325C20.1806 30.4822 19.7347 30.0363 19.1844 30.0363C18.6341 30.0363 18.1882 30.4822 18.1882 31.0325V36.0036C18.1882 42.8317 23.629 48.4222 30.4353 48.733V55.6021L27.1074 52.2743C25.6832 50.85 23.3657 50.8501 21.9414 52.2744C20.5174 53.6986 20.5174 56.016 21.9414 57.4403L31.4385 66.9374C32.7983 68.3542 35.2448 68.3542 36.6045 66.9373L40.3071 63.2346C40.6961 62.8455 40.6961 62.2148 40.3069 61.8258C39.918 61.4369 39.2872 61.4368 38.8982 61.826L35.1956 65.5285C34.5779 66.1726 33.4653 66.1726 32.8475 65.5285L23.3505 56.0316C22.7031 55.3842 22.7031 54.3306 23.3505 53.6833C23.9684 53.0391 25.0807 53.0391 25.6986 53.6833L30.7126 58.6975C31.3137 59.3306 32.4445 58.8509 32.4277 57.9788V43.2351C32.4277 42.3195 33.1724 41.5748 34.088 41.5748C35.0036 41.5748 35.7483 42.3195 35.7483 43.2351V57.846C35.7315 58.7182 36.8622 59.1977 37.4632 58.5647L42.3446 53.6833C42.9919 53.0358 44.0454 53.0359 44.6927 53.6832C45.3401 54.3306 45.3401 55.3842 44.6927 56.0314L42.1856 58.5385C41.7966 58.9277 41.7966 59.5584 42.1856 59.9474C42.5748 60.3363 43.2053 60.3363 43.5945 59.9474L46.1017 57.4401C47.5258 56.0159 47.5258 53.6985 46.1017 52.2742C44.6774 50.8499 42.36 50.8499 40.9357 52.2742L37.7407 55.4692V48.7332C40.923 48.5876 43.8876 47.2812 46.1437 45.0171C48.5375 42.6145 49.8559 39.4134 49.8559 36.0036V12.81C49.8561 5.74659 44.1096 0 37.0462 0V0Z" fill="white"/>
</g>
<defs>
<clipPath id="clip0">
<rect width="68" height="68" fill="white"/>
</clipPath>
</defs>
</svg>
