<svg width="46" height="55" viewBox="0 0 46 55" fill="none" xmlns="http://www.w3.org/2000/svg">
<path d="M45.9998 35C45.9998 46.0457 37.0455 55 25.9998 55L-0.000241399 55L-0.000241399 3.27826e-06L25.9998 3.27826e-06C37.0455 3.27826e-06 45.9998 8.95431 45.9998 20V35Z" fill="white"/>
<g clip-path="url(#clip0)">
<path d="M10.2345 27.5006C10.2345 26.9809 10.4328 26.4612 10.829 26.065L23.2984 13.5956C24.0916 12.8024 25.3776 12.8024 26.1705 13.5956C26.9634 14.3885 26.9634 15.6743 26.1705 16.4676L15.1369 27.5006L26.1701 38.5338C26.963 39.3269 26.963 40.6126 26.1701 41.4055C25.3773 42.1991 24.0912 42.1991 23.298 41.4055L10.8285 28.9362C10.4324 28.5398 10.2345 28.0201 10.2345 27.5006Z" fill="black"/>
</g>
<defs>
<clipPath id="clip0">
<rect width="29" height="29" fill="white" transform="translate(32.9998 13) rotate(90)"/>
</clipPath>
</defs>
</svg>
