<svg width="46" height="55" viewBox="0 0 46 55" fill="none" xmlns="http://www.w3.org/2000/svg">
<path d="M0 20.0003C0 8.95461 8.95431 0.000305176 20 0.000305176H46V55.0003H20C8.95431 55.0003 0 46.046 0 35.0003V20.0003Z" fill="white"/>
<g clip-path="url(#clip0)">
<path d="M35.7653 27.4997C35.7653 28.0194 35.5669 28.5391 35.1708 28.9353L22.7014 41.4047C21.9082 42.1979 20.6221 42.1979 19.8292 41.4047C19.0363 40.6118 19.0363 39.326 19.8292 38.5327L30.8629 27.4997L19.8296 16.4665C19.0367 15.6734 19.0367 14.3877 19.8296 13.5948C20.6225 12.8012 21.9086 12.8012 22.7018 13.5948L35.1712 26.0641C35.5674 26.4605 35.7653 26.9802 35.7653 27.4997Z" fill="black"/>
</g>
<defs>
<clipPath id="clip0">
<rect width="29" height="29" fill="white" transform="translate(13 42.0003) rotate(-90)"/>
</clipPath>
</defs>
</svg>
