<svg width="36" height="36" viewBox="0 0 36 36" fill="none" xmlns="http://www.w3.org/2000/svg">
<path d="M24.1135 0H11.9516C9.88401 0 8.1272 1.6859 8.1272 3.75295V32.2513C8.1272 34.3184 9.84683 36 11.9145 36L24.0963 35.9868C26.1637 35.9868 27.855 34.305 27.855 32.2376L27.8727 3.75095C27.8724 1.67646 26.1894 0 24.1135 0ZM16.2756 2.25005H19.8041C20.114 2.25005 20.3665 2.50168 20.3665 2.8125C20.3665 3.12331 20.114 3.37494 19.8041 3.37494H16.2756C15.9648 3.37494 15.7132 3.12331 15.7132 2.8125C15.7132 2.50168 15.9648 2.25005 16.2756 2.25005ZM14.1554 2.42905C14.3638 2.22089 14.7433 2.21803 14.9514 2.42905C15.0558 2.53313 15.1175 2.67925 15.1175 2.82851C15.1175 2.97491 15.0558 3.12074 14.9514 3.22511C14.8476 3.32947 14.7009 3.39095 14.5548 3.39095C14.4058 3.39095 14.2626 3.32947 14.1554 3.22511C14.0516 3.12102 13.9924 2.97491 13.9924 2.82851C13.9921 2.67925 14.0516 2.53313 14.1554 2.42905ZM17.9263 34.8851C16.9982 34.8851 16.2433 34.1297 16.2433 33.2018C16.2433 32.2736 16.9982 31.5185 17.9263 31.5185C18.8545 31.5185 19.6094 32.2736 19.6094 33.2018C19.6094 34.1297 18.8542 34.8851 17.9263 34.8851ZM26.1268 30.3744H10.0959V5.34391H26.1268V30.3744Z" fill="black"/>
</svg>
