<svg width="70" height="70" viewBox="0 0 70 70" fill="none" xmlns="http://www.w3.org/2000/svg">
<path d="M61.2238 0H51.1135C50.4314 0 49.8783 0.55307 49.8783 1.23522V7.41133H41.6332V1.23522C41.6332 0.55307 41.0801 0 40.398 0H29.596C28.9138 0 28.3607 0.55307 28.3607 1.23522V7.41133H20.1218V1.23522C20.1218 0.55307 19.5687 0 18.8866 0H8.7763C8.09415 0 7.54108 0.55307 7.54108 1.23522V14.4953C7.54787 17.8386 10.2566 20.5473 13.5998 20.5541H13.6245H56.4003C59.7435 20.5473 62.4522 17.8386 62.459 14.4953V1.23522C62.459 0.55307 61.906 0 61.2238 0Z" fill="#BFBFBF"/>
<path d="M55.3935 22.4008H14.6312L12.8833 62.0575V62.4405C12.8715 64.3254 13.5082 66.1572 14.6868 67.6284C15.7687 69.0199 17.3934 69.8828 19.1521 70H50.8788C52.6374 69.8828 54.2622 69.0199 55.3441 67.6284C56.5226 66.1572 57.1594 64.3254 57.1475 62.4405C57.1475 62.3663 57.1475 62.2366 57.1475 62.0575L55.3935 22.4008ZM44.3815 67.5913H25.6308V50.1994C25.6308 45.0164 29.8324 40.8148 35.0154 40.8148C40.1984 40.8148 44.4 45.0164 44.4 50.1994L44.3815 67.5913Z" fill="#BFBFBF"/>
</svg>
