<svg width="67" height="67" viewBox="0 0 67 67" fill="none" xmlns="http://www.w3.org/2000/svg">
<g clip-path="url(#clip0)">
<path d="M66.4029 48.483C66.2228 48.1815 65.1088 45.7609 59.7484 40.7858C54.1368 35.5762 54.8906 36.4221 61.6497 27.4141C65.7663 21.9281 67.4121 18.5779 66.897 17.1456C66.407 15.7804 63.3793 16.1405 63.3793 16.1405L53.3118 16.1992C53.3118 16.1992 52.5663 16.0987 52.0094 16.4295C51.4691 16.7562 51.1215 17.51 51.1215 17.51C51.1215 17.51 49.526 21.7564 47.3986 25.3663C42.9134 32.9839 41.1169 33.386 40.384 32.9127C38.6796 31.8113 39.1067 28.482 39.1067 26.1201C39.1067 18.737 40.2249 15.6589 36.9249 14.8633C35.8277 14.5994 35.0236 14.4235 32.2219 14.3942C28.6288 14.3565 25.5843 14.4068 23.8631 15.2485C22.7156 15.8097 21.832 17.0619 22.3722 17.1331C23.0381 17.221 24.5457 17.5393 25.3456 18.6281C26.38 20.031 26.3423 23.1886 26.3423 23.1886C26.3423 23.1886 26.9369 31.8783 24.9561 32.9588C23.5951 33.7 21.7315 32.1882 17.7321 25.2742C15.6843 21.7355 14.1348 17.8199 14.1348 17.8199C14.1348 17.8199 13.8375 17.0912 13.3056 16.7017C12.6607 16.2285 11.7561 16.0777 11.7561 16.0777L2.18278 16.1364C2.18278 16.1364 0.746365 16.1782 0.218701 16.8022C-0.250334 17.3592 0.181011 18.5067 0.181011 18.5067C0.181011 18.5067 7.67719 36.041 16.1617 44.8815C23.9468 52.9849 32.7831 52.4531 32.7831 52.4531H36.7867C36.7867 52.4531 37.9969 52.3191 38.6125 51.6532C39.1821 51.0418 39.1612 49.8943 39.1612 49.8943C39.1612 49.8943 39.0816 44.5213 41.5775 43.7299C44.0358 42.9509 47.1934 48.9227 50.5394 51.2218C53.0689 52.9598 54.9911 52.5787 54.9911 52.5787L63.9404 52.4531C63.9404 52.4531 68.6224 52.1641 66.4029 48.483Z" fill="#C4C4C4"/>
</g>
<defs>
<clipPath id="clip0">
<rect width="67" height="67" fill="white"/>
</clipPath>
</defs>
</svg>
